<svg xmlns="http://www.w3.org/2000/svg" viewBox="0 0 87.3 78">
  <path d="M6.6 66.85l3.85 6.65c.8 1.4 1.95 2.5 3.3 3.3L28.95 48H0c0 1.55.4 3.1 1.2 4.5z" fill="#0066da"/>
  <path d="M43.65 24L29.35 0c-1.35.8-2.5 1.9-3.3 3.3L1.2 43.5C.4 44.9 0 46.45 0 48h28.95z" fill="#00ac47"/>
  <path d="M73.55 76.8c1.35-.8 2.5-1.9 3.3-3.3l1.6-2.75 7.65-13.25c.8-1.4 1.2-2.95 1.2-4.5H58.35l6.25 11.5z" fill="#ea4335"/>
  <path d="M43.65 24L58.35 48l-.05.15H87.3c0-1.55-.4-3.1-1.2-4.5L61.65 3.3c-.8-1.4-1.95-2.5-3.3-3.3z" fill="#00832d"/>
  <path d="M58.3 48l.05-.15H28.95L43.65 24l14.65 23.85z" fill="#2684fc"/>
  <path d="M73.55 76.8l-8.95-15.8-6.25-11.5H28.95L13.75 76.8c1.35.8 2.9 1.2 4.5 1.2h50.8c1.6 0 3.15-.4 4.5-1.2z" fill="#ffba00"/>
</svg>
